<mxfile host="Electron" agent="Mozilla/5.0 (Windows NT 10.0; Win64; x64) AppleWebKit/537.36 (KHTML, like Gecko) draw.io/26.0.9 Chrome/128.0.6613.186 Electron/32.2.5 Safari/537.36" version="26.0.9">
  <diagram name="Page-1" id="yOE6Ou8vBkwqOuFUj9-g">
    <mxGraphModel dx="1185" dy="684" grid="1" gridSize="10" guides="1" tooltips="1" connect="1" arrows="1" fold="1" page="1" pageScale="1" pageWidth="1169" pageHeight="1654" math="0" shadow="0">
      <root>
        <mxCell id="0" />
        <mxCell id="1" parent="0" />
        <mxCell id="JqiDVA5L8YPAO0YXyxtW-15" value="" style="rounded=0;whiteSpace=wrap;html=1;dashed=1;fontSize=9;" parent="1" vertex="1">
          <mxGeometry x="19" y="50" width="1121" height="1490" as="geometry" />
        </mxCell>
        <mxCell id="JqiDVA5L8YPAO0YXyxtW-26" value="&lt;b&gt;&lt;font color=&quot;#ffffff&quot;&gt;CloudMigration.hu LAB&lt;/font&gt;&lt;br&gt;&lt;font color=&quot;#050505&quot;&gt;High Level O&lt;/font&gt;&lt;/b&gt;&lt;b&gt;&lt;font color=&quot;#050505&quot;&gt;verview - On-premises sites&lt;/font&gt;&lt;/b&gt;&lt;div&gt;&lt;font color=&quot;#050505&quot;&gt;&lt;div&gt;An effort to deploy the best possible multi-cloud/hybrid lab.&lt;/div&gt;&lt;/font&gt;&lt;font color=&quot;#ffffff&quot;&gt;Attila Macskasy, Peter Karpati&lt;/font&gt;&lt;br&gt;&lt;font color=&quot;#ffffff&quot;&gt;February, 2025&lt;/font&gt;&lt;/div&gt;" style="text;html=1;align=center;verticalAlign=middle;resizable=0;points=[];autosize=1;strokeColor=none;fillColor=light-dark(#1d9dc2, #1d293b);fontSize=15;fontFamily=Helvetica;" parent="1" vertex="1">
          <mxGeometry x="19" y="1550" width="410" height="100" as="geometry" />
        </mxCell>
        <mxCell id="C6mmBQ8od_YR21sbnJJz-4" value="&lt;div&gt;&lt;b&gt;RETRO/LEGACY OPERATING SYSTEMS&lt;/b&gt;&lt;br&gt;&lt;/div&gt;Address space: 172.22.&lt;b&gt;16&lt;/b&gt;.0/24 (VLAN&amp;nbsp;&lt;b&gt;16&lt;/b&gt;)" style="rounded=0;whiteSpace=wrap;html=1;fontColor=#333333;fillColor=#f5f5f5;dashed=1;strokeColor=#666666;strokeWidth=2;align=left;verticalAlign=top;fontSize=9;" parent="1" vertex="1">
          <mxGeometry x="25.5" y="612" width="804.5" height="388" as="geometry" />
        </mxCell>
        <mxCell id="JqiDVA5L8YPAO0YXyxtW-18" value="&lt;div&gt;&lt;b&gt;MODERN/CURRENT OPERATING SYSTEMS&lt;/b&gt;&lt;/div&gt;Address space: 172.22.&lt;b&gt;22&lt;/b&gt;.0/24 (VLAN &lt;b&gt;22&lt;/b&gt;)" style="rounded=0;whiteSpace=wrap;html=1;fontColor=#030303;fillColor=none;dashed=1;strokeColor=#99CCFF;strokeWidth=2;align=left;verticalAlign=top;fontSize=9;" parent="1" vertex="1">
          <mxGeometry x="26" y="92" width="804" height="508.24" as="geometry" />
        </mxCell>
        <mxCell id="JqiDVA5L8YPAO0YXyxtW-23" value="&lt;b&gt;ATTILA&#39;S ON-PREMISES SITE&lt;/b&gt;" style="text;html=1;align=center;verticalAlign=middle;resizable=0;points=[];autosize=1;strokeColor=default;fillColor=light-dark(#f5f5f5, #1d293b);fontSize=14;fontFamily=Helvetica;strokeWidth=2;" parent="1" vertex="1">
          <mxGeometry x="25.5" y="62" width="220" height="30" as="geometry" />
        </mxCell>
        <mxCell id="C6mmBQ8od_YR21sbnJJz-6" value="&lt;div style=&quot;forced-color-adjust: none;&quot;&gt;&lt;b style=&quot;forced-color-adjust: none;&quot;&gt;DC01&lt;/b&gt;&lt;/div&gt;&lt;div style=&quot;forced-color-adjust: none;&quot;&gt;&lt;b style=&quot;forced-color-adjust: none;&quot;&gt;[172.22.22.1]&lt;/b&gt;&lt;/div&gt;Windows Server 2022&lt;div style=&quot;forced-color-adjust: none;&quot;&gt;First Domain Controller&lt;br style=&quot;forced-color-adjust: none;&quot;&gt;&lt;div style=&quot;forced-color-adjust: none;&quot;&gt;(1 VCPU, 2GB RAM)&lt;br style=&quot;forced-color-adjust: none;&quot;&gt;&lt;div style=&quot;forced-color-adjust: none;&quot;&gt;&lt;br style=&quot;forced-color-adjust: none; color: rgb(0, 0, 0); font-family: Helvetica; font-style: normal; font-variant-ligatures: normal; font-variant-caps: normal; font-weight: 400; letter-spacing: normal; orphans: 2; text-align: center; text-indent: 0px; text-transform: none; widows: 2; word-spacing: 0px; -webkit-text-stroke-width: 0px; white-space: nowrap; background-color: rgb(255, 255, 255); text-decoration-thickness: initial; text-decoration-style: initial; text-decoration-color: initial;&quot;&gt;&lt;br&gt;&lt;br&gt;&lt;/div&gt;&lt;/div&gt;&lt;/div&gt;" style="sketch=0;pointerEvents=1;shadow=0;dashed=0;html=1;strokeColor=none;fillColor=#505050;labelPosition=center;verticalLabelPosition=bottom;verticalAlign=top;outlineConnect=0;align=center;shape=mxgraph.office.servers.windows_server;fontSize=9;" parent="1" vertex="1">
          <mxGeometry x="63.43000000000001" y="155" width="55" height="57" as="geometry" />
        </mxCell>
        <mxCell id="C6mmBQ8od_YR21sbnJJz-5" value="&lt;div&gt;&lt;b&gt;L-DC01&lt;/b&gt;&lt;/div&gt;&lt;div&gt;&lt;b&gt;[172.22.16.1]&lt;/b&gt;&lt;/div&gt;Windows Server 2003 R2&lt;div&gt;Primary Domain Controller&lt;br&gt;&lt;div&gt;(1 VCPU, 1GB RAM)&lt;br&gt;&lt;div&gt;&lt;br&gt;&lt;/div&gt;&lt;/div&gt;&lt;/div&gt;" style="image;aspect=fixed;perimeter=ellipsePerimeter;html=1;align=center;shadow=0;dashed=0;spacingTop=3;image=img/lib/active_directory/windows_server_2.svg;fontSize=9;imageBackground=none;" parent="1" vertex="1">
          <mxGeometry x="77" y="654.4" width="62.08" height="77.6" as="geometry" />
        </mxCell>
        <mxCell id="C6mmBQ8od_YR21sbnJJz-8" value="&lt;div&gt;&lt;b&gt;RETRO/LEGACY OPERATING SYSTEMS&lt;/b&gt;&lt;br&gt;&lt;/div&gt;Address space: 172.22.&lt;b&gt;17&lt;/b&gt;.0/24 (VLAN&amp;nbsp;&lt;b&gt;17&lt;/b&gt;)" style="rounded=0;whiteSpace=wrap;html=1;fontColor=#333333;fillColor=#f5f5f5;dashed=1;strokeColor=#666666;strokeWidth=2;align=left;verticalAlign=top;fontSize=9;" parent="1" vertex="1">
          <mxGeometry x="840" y="612" width="293" height="388" as="geometry" />
        </mxCell>
        <mxCell id="C6mmBQ8od_YR21sbnJJz-9" value="&lt;div&gt;&lt;b&gt;MODERN/CURRENT OPERATING SYSTEMS&lt;/b&gt;&lt;/div&gt;Address space: 172.22.&lt;b&gt;23&lt;/b&gt;.0/24 (VLAN &lt;b&gt;23&lt;/b&gt;)" style="rounded=0;whiteSpace=wrap;html=1;fontColor=#030303;fillColor=none;dashed=1;strokeColor=#99CCFF;strokeWidth=2;align=left;verticalAlign=top;fontSize=9;" parent="1" vertex="1">
          <mxGeometry x="843" y="92" width="290" height="510" as="geometry" />
        </mxCell>
        <mxCell id="C6mmBQ8od_YR21sbnJJz-10" value="&lt;b&gt;PETER&#39;S ON-PREMISES SITE&lt;/b&gt;" style="text;html=1;align=center;verticalAlign=middle;resizable=0;points=[];autosize=1;strokeColor=none;fillColor=light-dark(#202020, #1f2f1e);fontSize=14;fontFamily=Helvetica;fontColor=#FFFFFF;" parent="1" vertex="1">
          <mxGeometry x="844.57" y="62" width="220" height="30" as="geometry" />
        </mxCell>
        <mxCell id="C6mmBQ8od_YR21sbnJJz-15" value="&lt;div&gt;&lt;b&gt;L-FS01&lt;/b&gt;&lt;/div&gt;&lt;div&gt;&lt;b&gt;[172.22.16.2]&lt;/b&gt;&lt;b&gt;&lt;br&gt;&lt;/b&gt;&lt;/div&gt;Windows Server 2003 R2&lt;div&gt;Primary File Server&lt;br&gt;&lt;div&gt;(1 VCPU, 1GB RAM)&lt;br&gt;&lt;div&gt;&lt;br&gt;&lt;/div&gt;&lt;/div&gt;&lt;/div&gt;" style="image;aspect=fixed;perimeter=ellipsePerimeter;html=1;align=center;shadow=0;dashed=0;spacingTop=3;image=img/lib/active_directory/windows_server_2.svg;fontSize=9;imageBackground=none;" parent="1" vertex="1">
          <mxGeometry x="240.5" y="652" width="64" height="80" as="geometry" />
        </mxCell>
        <mxCell id="C6mmBQ8od_YR21sbnJJz-22" value="&lt;div style=&quot;forced-color-adjust: none;&quot;&gt;&lt;b style=&quot;forced-color-adjust: none;&quot;&gt;DC02&lt;/b&gt;&lt;/div&gt;&lt;div style=&quot;forced-color-adjust: none;&quot;&gt;&lt;b style=&quot;forced-color-adjust: none;&quot;&gt;&lt;b&gt;[172.22.23.1]&lt;/b&gt;&lt;br&gt;&lt;/b&gt;&lt;/div&gt;Windows Server 2022&lt;div style=&quot;forced-color-adjust: none;&quot;&gt;Additional Domain Controller&lt;br style=&quot;forced-color-adjust: none;&quot;&gt;&lt;div style=&quot;forced-color-adjust: none;&quot;&gt;(1 VCPU, 2GB RAM)&lt;br style=&quot;forced-color-adjust: none;&quot;&gt;&lt;div style=&quot;forced-color-adjust: none;&quot;&gt;&lt;br style=&quot;forced-color-adjust: none; color: rgb(0, 0, 0); font-family: Helvetica; font-style: normal; font-variant-ligatures: normal; font-variant-caps: normal; font-weight: 400; letter-spacing: normal; orphans: 2; text-align: center; text-indent: 0px; text-transform: none; widows: 2; word-spacing: 0px; -webkit-text-stroke-width: 0px; white-space: nowrap; background-color: rgb(255, 255, 255); text-decoration-thickness: initial; text-decoration-style: initial; text-decoration-color: initial;&quot;&gt;&lt;br&gt;&lt;br&gt;&lt;/div&gt;&lt;/div&gt;&lt;/div&gt;" style="sketch=0;pointerEvents=1;shadow=0;dashed=0;html=1;strokeColor=none;fillColor=#505050;labelPosition=center;verticalLabelPosition=bottom;verticalAlign=top;outlineConnect=0;align=center;shape=mxgraph.office.servers.windows_server;fontSize=9;" parent="1" vertex="1">
          <mxGeometry x="908.88" y="259.98" width="54.12" height="62.02" as="geometry" />
        </mxCell>
        <mxCell id="C6mmBQ8od_YR21sbnJJz-23" value="&lt;div style=&quot;forced-color-adjust: none;&quot;&gt;&lt;b style=&quot;forced-color-adjust: none;&quot;&gt;FS01A&lt;/b&gt;&lt;/div&gt;&lt;div style=&quot;forced-color-adjust: none;&quot;&gt;&lt;b style=&quot;forced-color-adjust: none;&quot;&gt;[172.22.22.2]&lt;/b&gt;&lt;/div&gt;Windows Server 2025&lt;div style=&quot;forced-color-adjust: none;&quot;&gt;Active File Server&lt;/div&gt;&lt;div style=&quot;forced-color-adjust: none;&quot;&gt;(CSV on iSCSI)&lt;br style=&quot;forced-color-adjust: none;&quot;&gt;&lt;div style=&quot;forced-color-adjust: none;&quot;&gt;(1 VCPU, 2GB RAM)&lt;/div&gt;&lt;/div&gt;" style="sketch=0;pointerEvents=1;shadow=0;dashed=0;html=1;strokeColor=none;fillColor=#505050;labelPosition=center;verticalLabelPosition=bottom;verticalAlign=top;outlineConnect=0;align=center;shape=mxgraph.office.servers.windows_server;fontSize=9;" parent="1" vertex="1">
          <mxGeometry x="182.75" y="155" width="58" height="54.75" as="geometry" />
        </mxCell>
        <mxCell id="C6mmBQ8od_YR21sbnJJz-24" value="&lt;div style=&quot;forced-color-adjust: none;&quot;&gt;&lt;b style=&quot;forced-color-adjust: none;&quot;&gt;FS01B&lt;/b&gt;&lt;/div&gt;&lt;div style=&quot;forced-color-adjust: none;&quot;&gt;&lt;b style=&quot;forced-color-adjust: none;&quot;&gt;[172.22.22.3]&lt;/b&gt;&lt;/div&gt;Windows Server 2025&lt;div style=&quot;forced-color-adjust: none;&quot;&gt;Standby/Passive File Server&lt;/div&gt;&lt;div style=&quot;forced-color-adjust: none;&quot;&gt;(CSV on iSCSI)&lt;br style=&quot;forced-color-adjust: none;&quot;&gt;&lt;div style=&quot;forced-color-adjust: none;&quot;&gt;(1 VCPU, 2GB RAM)&lt;/div&gt;&lt;/div&gt;" style="sketch=0;pointerEvents=1;shadow=0;dashed=0;html=1;strokeColor=none;fillColor=#505050;labelPosition=center;verticalLabelPosition=bottom;verticalAlign=top;outlineConnect=0;align=center;shape=mxgraph.office.servers.windows_server;fontSize=9;" parent="1" vertex="1">
          <mxGeometry x="293.54" y="155.00000000000003" width="58.63" height="56.5" as="geometry" />
        </mxCell>
        <mxCell id="C6mmBQ8od_YR21sbnJJz-16" value="" style="shape=image;verticalLabelPosition=bottom;labelBackgroundColor=default;verticalAlign=top;aspect=fixed;imageAspect=0;image=https://www.ixsystems.com/wp-content/uploads/2021/02/truenas_enterprise-logo-full-color-rgb.png;fontSize=9;" parent="1" vertex="1">
          <mxGeometry x="44.370000000000005" y="460" width="80" height="20" as="geometry" />
        </mxCell>
        <mxCell id="C6mmBQ8od_YR21sbnJJz-21" value="" style="shape=image;verticalLabelPosition=bottom;labelBackgroundColor=default;verticalAlign=top;aspect=fixed;imageAspect=0;image=https://nascompares.com/wp-content/uploads/2016/09/Synology-all-black-logo-for-banner.png;fontSize=9;" parent="1" vertex="1">
          <mxGeometry x="173.06" y="460" width="75" height="20" as="geometry" />
        </mxCell>
        <mxCell id="C6mmBQ8od_YR21sbnJJz-25" value="&lt;div style=&quot;color: rgb(0, 0, 0);&quot;&gt;&lt;b&gt;TNAS1&lt;/b&gt;&lt;/div&gt;&lt;div style=&quot;color: rgb(0, 0, 0);&quot;&gt;&lt;b&gt;[172.22.22.252]&lt;/b&gt;&lt;/div&gt;&lt;span style=&quot;color: rgb(0, 0, 0);&quot;&gt;True NAS Server&lt;/span&gt;&lt;div style=&quot;color: rgb(0, 0, 0);&quot;&gt;&lt;div style=&quot;color: rgb(0, 0, 0);&quot;&gt;&lt;span style=&quot;color: light-dark(rgb(0, 0, 0), rgb(0, 0, 0)); background-color: transparent;&quot;&gt;(2 VCPU, 16GB RAM)&lt;/span&gt;&lt;br&gt;&lt;/div&gt;&lt;/div&gt;" style="fontColor=#0066CC;verticalAlign=top;verticalLabelPosition=bottom;labelPosition=center;align=center;html=1;outlineConnect=0;fillColor=#CCCCCC;strokeColor=#6881B3;gradientColor=none;gradientDirection=north;strokeWidth=2;shape=mxgraph.networks.nas_filer;fontSize=9;" parent="1" vertex="1">
          <mxGeometry x="44.37" y="490" width="72.5" height="40" as="geometry" />
        </mxCell>
        <mxCell id="C6mmBQ8od_YR21sbnJJz-26" value="&lt;div style=&quot;color: rgb(0, 0, 0);&quot;&gt;&lt;b&gt;NAS1 (@10G)&lt;/b&gt;&lt;/div&gt;&lt;div style=&quot;color: rgb(0, 0, 0);&quot;&gt;&lt;b&gt;[172.22.22.253]&lt;/b&gt;&lt;/div&gt;&lt;span style=&quot;color: rgb(0, 0, 0);&quot;&gt;Synology NAS 1821+&lt;/span&gt;&lt;div style=&quot;color: rgb(0, 0, 0);&quot;&gt;&lt;div style=&quot;color: rgb(0, 0, 0);&quot;&gt;&lt;span style=&quot;color: light-dark(rgb(0, 0, 0), rgb(0, 0, 0)); background-color: transparent;&quot;&gt;(4 VCPU, 64GB RAM)&lt;/span&gt;&lt;br&gt;&lt;/div&gt;&lt;/div&gt;" style="fontColor=#0066CC;verticalAlign=top;verticalLabelPosition=bottom;labelPosition=center;align=center;html=1;outlineConnect=0;fillColor=#CCCCCC;strokeColor=#6881B3;gradientColor=none;gradientDirection=north;strokeWidth=2;shape=mxgraph.networks.nas_filer;fontSize=9;" parent="1" vertex="1">
          <mxGeometry x="171.56" y="491.5" width="76.5" height="40" as="geometry" />
        </mxCell>
        <mxCell id="C6mmBQ8od_YR21sbnJJz-27" value="&lt;div&gt;&lt;b style=&quot;background-color: light-dark(rgb(245, 245, 245), rgb(237, 237, 237));&quot;&gt;L-DB01&lt;/b&gt;&lt;/div&gt;&lt;div&gt;&lt;b style=&quot;background-color: light-dark(rgb(245, 245, 245), rgb(237, 237, 237));&quot;&gt;[172.22.16.4]&lt;/b&gt;&lt;/div&gt;&lt;span style=&quot;background-color: light-dark(rgb(245, 245, 245), rgb(237, 237, 237));&quot;&gt;Windows Server 2003 R2&lt;/span&gt;&lt;div&gt;&lt;span style=&quot;background-color: light-dark(rgb(245, 245, 245), rgb(237, 237, 237));&quot;&gt;SQL Server 2005&lt;br&gt;&lt;/span&gt;&lt;div&gt;&lt;span style=&quot;background-color: light-dark(rgb(245, 245, 245), rgb(237, 237, 237));&quot;&gt;(1 VCPU, 2GB RAM)&lt;br&gt;&lt;/span&gt;&lt;div&gt;&lt;br&gt;&lt;/div&gt;&lt;/div&gt;&lt;/div&gt;" style="image;aspect=fixed;perimeter=ellipsePerimeter;html=1;align=center;shadow=0;dashed=0;spacingTop=3;image=img/lib/active_directory/windows_server_2.svg;fontSize=9;imageBackground=none;" parent="1" vertex="1">
          <mxGeometry x="384.96" y="657" width="62.08" height="77.6" as="geometry" />
        </mxCell>
        <mxCell id="C6mmBQ8od_YR21sbnJJz-28" value="&lt;div&gt;&lt;b&gt;L-APP01&lt;/b&gt;&lt;/div&gt;&lt;div&gt;&lt;b&gt;[172.22.16.6]&lt;/b&gt;&lt;/div&gt;Windows Server 2003 R2&lt;div&gt;IIS Server 6.0&lt;br&gt;&lt;div&gt;(1 VCPU, 1GB RAM)&lt;br&gt;&lt;div&gt;&lt;br&gt;&lt;/div&gt;&lt;/div&gt;&lt;/div&gt;" style="image;aspect=fixed;perimeter=ellipsePerimeter;html=1;align=center;shadow=0;dashed=0;spacingTop=3;image=img/lib/active_directory/windows_server_2.svg;fontSize=9;" parent="1" vertex="1">
          <mxGeometry x="79.08000000000001" y="824.5" width="60" height="75" as="geometry" />
        </mxCell>
        <mxCell id="C6mmBQ8od_YR21sbnJJz-30" value="&lt;div&gt;&lt;b&gt;UBUNTU24&lt;/b&gt;&lt;/div&gt;&lt;div&gt;&lt;b&gt;[172.22.23.?]&lt;/b&gt;&lt;/div&gt;Unbuntu Linux 24.04 LTS&lt;div&gt;Noble Numbat (2024)&lt;br&gt;&lt;div&gt;(2 VCPU, 4GB RAM)&lt;br&gt;&lt;div&gt;&lt;br&gt;&lt;/div&gt;&lt;/div&gt;&lt;/div&gt;" style="image;sketch=0;aspect=fixed;html=1;points=[];align=center;fontSize=9;image=img/lib/mscae/VM_Linux_Non_Azure.svg;" parent="1" vertex="1">
          <mxGeometry x="1037.25" y="352" width="50" height="46" as="geometry" />
        </mxCell>
        <mxCell id="C6mmBQ8od_YR21sbnJJz-29" value="&lt;div&gt;&lt;b&gt;L-UBUNTU410&lt;/b&gt;&lt;/div&gt;&lt;div&gt;&lt;b&gt;[172.22.17.?]&lt;/b&gt;&lt;/div&gt;Unbuntu Linux 4.10&lt;div&gt;Warty Warthog (2004)&lt;br&gt;&lt;div&gt;(1 VCPU, 1GB RAM)&lt;br&gt;&lt;div&gt;&lt;br&gt;&lt;/div&gt;&lt;/div&gt;&lt;/div&gt;" style="image;sketch=0;aspect=fixed;html=1;points=[];align=center;fontSize=9;image=img/lib/mscae/VM_Linux.svg;" parent="1" vertex="1">
          <mxGeometry x="889.8399999999998" y="833.45" width="62.07" height="57.1" as="geometry" />
        </mxCell>
        <mxCell id="C6mmBQ8od_YR21sbnJJz-31" value="&lt;div&gt;&lt;b&gt;L-DC02&lt;/b&gt;&lt;/div&gt;&lt;div&gt;&lt;b&gt;[172.22.17.1]&lt;/b&gt;&lt;/div&gt;Windows Server 2003 R2&lt;div&gt;Secondary Domain Controller&lt;br&gt;&lt;div&gt;(1 VCPU, 1GB RAM)&lt;br&gt;&lt;div&gt;&lt;br&gt;&lt;/div&gt;&lt;/div&gt;&lt;/div&gt;" style="image;aspect=fixed;perimeter=ellipsePerimeter;html=1;align=center;shadow=0;dashed=0;spacingTop=3;image=img/lib/active_directory/windows_server_2.svg;fontSize=9;" parent="1" vertex="1">
          <mxGeometry x="888.7500000000001" y="651.69" width="64.25" height="80.31" as="geometry" />
        </mxCell>
        <mxCell id="C6mmBQ8od_YR21sbnJJz-32" value="&lt;div style=&quot;forced-color-adjust: none; color: rgb(0, 0, 0); font-family: Helvetica; font-style: normal; font-variant-ligatures: normal; font-variant-caps: normal; letter-spacing: normal; orphans: 2; text-align: center; text-indent: 0px; text-transform: none; widows: 2; word-spacing: 0px; -webkit-text-stroke-width: 0px; white-space: nowrap; text-decoration-thickness: initial; text-decoration-style: initial; text-decoration-color: initial;&quot;&gt;&lt;b&gt;Mikrotik Firewall&lt;/b&gt;&lt;/div&gt;&lt;div style=&quot;forced-color-adjust: none; color: rgb(0, 0, 0); font-family: Helvetica; font-style: normal; font-variant-ligatures: normal; font-variant-caps: normal; font-weight: 400; letter-spacing: normal; orphans: 2; text-align: center; text-indent: 0px; text-transform: none; widows: 2; word-spacing: 0px; -webkit-text-stroke-width: 0px; white-space: nowrap; text-decoration-thickness: initial; text-decoration-style: initial; text-decoration-color: initial;&quot;&gt;&lt;b style=&quot;forced-color-adjust: none;&quot;&gt;[172.22.22.254]&lt;/b&gt;&lt;/div&gt;RB5009UPr+S+ (arm64)&lt;br&gt;&lt;div style=&quot;forced-color-adjust: none; color: rgb(0, 0, 0); font-family: Helvetica; font-style: normal; font-variant-ligatures: normal; font-variant-caps: normal; font-weight: 400; letter-spacing: normal; orphans: 2; text-align: center; text-indent: 0px; text-transform: none; widows: 2; word-spacing: 0px; -webkit-text-stroke-width: 0px; white-space: nowrap; text-decoration-thickness: initial; text-decoration-style: initial; text-decoration-color: initial;&quot;&gt;Mikrotik Gateway/Firewall&lt;br style=&quot;forced-color-adjust: none;&quot;&gt;&lt;div style=&quot;forced-color-adjust: none;&quot;&gt;(1 VCPU, 2GB RAM)&lt;/div&gt;&lt;/div&gt;" style="image;html=1;image=img/lib/clip_art/networking/Firewall_02_128x128.png;fontSize=9;labelBackgroundColor=#FFFFFF;" parent="1" vertex="1">
          <mxGeometry x="680.5" y="121" width="70.5" height="67.5" as="geometry" />
        </mxCell>
        <mxCell id="C6mmBQ8od_YR21sbnJJz-33" value="&lt;div style=&quot;color: rgb(0, 0, 0);&quot;&gt;&lt;div style=&quot;color: rgb(0, 0, 0);&quot;&gt;&lt;b&gt;Cisco Switch&lt;/b&gt;&lt;/div&gt;&lt;div style=&quot;color: rgb(0, 0, 0);&quot;&gt;&lt;b&gt;[172.22.22.251]&lt;/b&gt;&lt;/div&gt;&lt;span&gt;TBD&lt;/span&gt;&lt;br&gt;&lt;div style=&quot;color: rgb(0, 0, 0);&quot;&gt;Management IP (VLANs)&lt;br&gt;&lt;div&gt;(48 port, gigabit, 10G SFP)&lt;/div&gt;&lt;/div&gt;&lt;/div&gt;" style="image;html=1;image=img/lib/clip_art/networking/Switch_128x128.png;fontSize=9;labelBackgroundColor=#FFFFFF;" parent="1" vertex="1">
          <mxGeometry x="563" y="111" width="79.88" height="77.5" as="geometry" />
        </mxCell>
        <mxCell id="C6mmBQ8od_YR21sbnJJz-35" value="&lt;div style=&quot;forced-color-adjust: none; color: rgb(0, 0, 0); font-family: Helvetica; font-style: normal; font-variant-ligatures: normal; font-variant-caps: normal; font-weight: 400; letter-spacing: normal; orphans: 2; text-align: center; text-indent: 0px; text-transform: none; widows: 2; word-spacing: 0px; -webkit-text-stroke-width: 0px; white-space: nowrap; text-decoration-thickness: initial; text-decoration-style: initial; text-decoration-color: initial;&quot;&gt;&lt;b style=&quot;forced-color-adjust: none;&quot;&gt;M&lt;/b&gt;&lt;/div&gt;&lt;div style=&quot;forced-color-adjust: none; color: rgb(0, 0, 0); font-family: Helvetica; font-style: normal; font-variant-ligatures: normal; font-variant-caps: normal; font-weight: 400; letter-spacing: normal; orphans: 2; text-align: center; text-indent: 0px; text-transform: none; widows: 2; word-spacing: 0px; -webkit-text-stroke-width: 0px; white-space: nowrap; text-decoration-thickness: initial; text-decoration-style: initial; text-decoration-color: initial;&quot;&gt;&lt;b style=&quot;forced-color-adjust: none;&quot;&gt;[172.22.23.254]&lt;/b&gt;&lt;/div&gt;&lt;span&gt;RG222&lt;/span&gt;&lt;br&gt;&lt;div style=&quot;forced-color-adjust: none; color: rgb(0, 0, 0); font-family: Helvetica; font-style: normal; font-variant-ligatures: normal; font-variant-caps: normal; font-weight: 400; letter-spacing: normal; orphans: 2; text-align: center; text-indent: 0px; text-transform: none; widows: 2; word-spacing: 0px; -webkit-text-stroke-width: 0px; white-space: nowrap; text-decoration-thickness: initial; text-decoration-style: initial; text-decoration-color: initial;&quot;&gt;Mikrotik Gateway/Firewall&lt;br style=&quot;forced-color-adjust: none;&quot;&gt;&lt;div style=&quot;forced-color-adjust: none;&quot;&gt;(1 VCPU, 2GB RAM)&lt;/div&gt;&lt;/div&gt;" style="image;html=1;image=img/lib/clip_art/networking/Firewall_02_128x128.png;fontSize=9;labelBackgroundColor=#FFFFFF;" parent="1" vertex="1">
          <mxGeometry x="870" y="120" width="68.81" height="69.5" as="geometry" />
        </mxCell>
        <mxCell id="C6mmBQ8od_YR21sbnJJz-36" value="&lt;div style=&quot;color: rgb(0, 0, 0);&quot;&gt;&lt;b&gt;Cisco Switch&lt;/b&gt;&lt;/div&gt;&lt;div style=&quot;color: rgb(0, 0, 0);&quot;&gt;&lt;b&gt;[172.22.23.251]&lt;/b&gt;&lt;/div&gt;&lt;span&gt;XXX&lt;/span&gt;&lt;br&gt;&lt;div style=&quot;color: rgb(0, 0, 0);&quot;&gt;Management IP (VLANs)&lt;br&gt;&lt;div&gt;(48 port)&lt;/div&gt;&lt;/div&gt;" style="image;html=1;image=img/lib/clip_art/networking/Switch_128x128.png;fontSize=9;labelBackgroundColor=#FFFFFF;" parent="1" vertex="1">
          <mxGeometry x="1000" y="112" width="70.75" height="82.25" as="geometry" />
        </mxCell>
        <mxCell id="C6mmBQ8od_YR21sbnJJz-37" value="" style="shape=image;verticalLabelPosition=bottom;labelBackgroundColor=default;verticalAlign=top;aspect=fixed;imageAspect=0;image=https://www.ixsystems.com/wp-content/uploads/2021/02/truenas_enterprise-logo-full-color-rgb.png;fontSize=9;" parent="1" vertex="1">
          <mxGeometry x="892.75" y="472" width="80" height="20" as="geometry" />
        </mxCell>
        <mxCell id="C6mmBQ8od_YR21sbnJJz-38" value="" style="shape=image;verticalLabelPosition=bottom;labelBackgroundColor=default;verticalAlign=top;aspect=fixed;imageAspect=0;image=https://nascompares.com/wp-content/uploads/2016/09/Synology-all-black-logo-for-banner.png;fontSize=9;" parent="1" vertex="1">
          <mxGeometry x="1024.75" y="472" width="75" height="20" as="geometry" />
        </mxCell>
        <mxCell id="C6mmBQ8od_YR21sbnJJz-39" value="&lt;div style=&quot;color: rgb(0, 0, 0);&quot;&gt;&lt;b&gt;TNAS2&lt;/b&gt;&lt;/div&gt;&lt;div style=&quot;color: rgb(0, 0, 0);&quot;&gt;&lt;b&gt;[172.22.23.252]&lt;/b&gt;&lt;/div&gt;&lt;span style=&quot;color: rgb(0, 0, 0);&quot;&gt;True NAS Server&lt;/span&gt;&lt;div style=&quot;color: rgb(0, 0, 0);&quot;&gt;&lt;div style=&quot;color: rgb(0, 0, 0);&quot;&gt;&lt;span style=&quot;color: light-dark(rgb(0, 0, 0), rgb(0, 0, 0)); background-color: transparent;&quot;&gt;(2 VCPU, 4GB RAM)&lt;/span&gt;&lt;br&gt;&lt;/div&gt;&lt;/div&gt;" style="fontColor=#0066CC;verticalAlign=top;verticalLabelPosition=bottom;labelPosition=center;align=center;html=1;outlineConnect=0;fillColor=#CCCCCC;strokeColor=#6881B3;gradientColor=none;gradientDirection=north;strokeWidth=2;shape=mxgraph.networks.nas_filer;fontSize=9;" parent="1" vertex="1">
          <mxGeometry x="892.75" y="502" width="74" height="40" as="geometry" />
        </mxCell>
        <mxCell id="C6mmBQ8od_YR21sbnJJz-40" value="&lt;div style=&quot;color: rgb(0, 0, 0);&quot;&gt;&lt;b&gt;NAS2&amp;nbsp;&lt;/b&gt;&lt;b style=&quot;background-color: transparent;&quot;&gt;(@1G)&lt;/b&gt;&lt;/div&gt;&lt;div style=&quot;color: rgb(0, 0, 0);&quot;&gt;&lt;b&gt;[172.22.23.253]&lt;/b&gt;&lt;/div&gt;&lt;span style=&quot;color: rgb(0, 0, 0);&quot;&gt;Synology NAS 718+&lt;/span&gt;&lt;div style=&quot;color: rgb(0, 0, 0);&quot;&gt;&lt;div style=&quot;color: rgb(0, 0, 0);&quot;&gt;&lt;span style=&quot;color: light-dark(rgb(0, 0, 0), rgb(0, 0, 0)); background-color: transparent;&quot;&gt;(4 VCPU, 16GB RAM)&lt;/span&gt;&lt;br&gt;&lt;/div&gt;&lt;/div&gt;" style="fontColor=#0066CC;verticalAlign=top;verticalLabelPosition=bottom;labelPosition=center;align=center;html=1;outlineConnect=0;fillColor=#CCCCCC;strokeColor=#6881B3;gradientColor=none;gradientDirection=north;strokeWidth=2;shape=mxgraph.networks.nas_filer;fontSize=9;" parent="1" vertex="1">
          <mxGeometry x="1021.13" y="502" width="71.5" height="40" as="geometry" />
        </mxCell>
        <mxCell id="C6mmBQ8od_YR21sbnJJz-42" value="&lt;div style=&quot;forced-color-adjust: none;&quot;&gt;&lt;b style=&quot;forced-color-adjust: none;&quot;&gt;DB01A&lt;/b&gt;&lt;/div&gt;&lt;div style=&quot;forced-color-adjust: none;&quot;&gt;&lt;b style=&quot;forced-color-adjust: none;&quot;&gt;[172.22.22.4]&lt;/b&gt;&lt;/div&gt;Windows Server 2025&lt;div style=&quot;forced-color-adjust: none;&quot;&gt;SQL X&lt;/div&gt;&lt;div style=&quot;forced-color-adjust: none;&quot;&gt;&lt;div style=&quot;forced-color-adjust: none;&quot;&gt;(X VCPU, XGB RAM)&lt;/div&gt;&lt;/div&gt;" style="sketch=0;pointerEvents=1;shadow=0;dashed=0;html=1;strokeColor=none;fillColor=#505050;labelPosition=center;verticalLabelPosition=bottom;verticalAlign=top;outlineConnect=0;align=center;shape=mxgraph.office.servers.windows_server;fontSize=9;" parent="1" vertex="1">
          <mxGeometry x="58.120000000000005" y="310.70000000000005" width="52.5" height="56.5" as="geometry" />
        </mxCell>
        <mxCell id="C6mmBQ8od_YR21sbnJJz-44" value="&lt;div style=&quot;forced-color-adjust: none;&quot;&gt;&lt;b style=&quot;forced-color-adjust: none;&quot;&gt;DB01B&lt;/b&gt;&lt;/div&gt;&lt;div style=&quot;forced-color-adjust: none;&quot;&gt;&lt;b style=&quot;forced-color-adjust: none;&quot;&gt;[172.22.22.5]&lt;/b&gt;&lt;/div&gt;Windows Server 2025&lt;div style=&quot;forced-color-adjust: none;&quot;&gt;SQL X&lt;/div&gt;&lt;div style=&quot;forced-color-adjust: none;&quot;&gt;&lt;div style=&quot;forced-color-adjust: none;&quot;&gt;(X VCPU, XGB RAM)&lt;/div&gt;&lt;/div&gt;" style="sketch=0;pointerEvents=1;shadow=0;dashed=0;html=1;strokeColor=none;fillColor=#505050;labelPosition=center;verticalLabelPosition=bottom;verticalAlign=top;outlineConnect=0;align=center;shape=mxgraph.office.servers.windows_server;fontSize=9;" parent="1" vertex="1">
          <mxGeometry x="175.5" y="310.70000000000005" width="58" height="54.22" as="geometry" />
        </mxCell>
        <mxCell id="C6mmBQ8od_YR21sbnJJz-45" value="&lt;div style=&quot;forced-color-adjust: none;&quot;&gt;&lt;b style=&quot;forced-color-adjust: none;&quot;&gt;APP01&lt;/b&gt;&lt;/div&gt;&lt;div style=&quot;forced-color-adjust: none;&quot;&gt;&lt;b style=&quot;forced-color-adjust: none;&quot;&gt;[172.22.22.6]&lt;/b&gt;&lt;/div&gt;Windows Server 2025&lt;div style=&quot;forced-color-adjust: none;&quot;&gt;IIS X&lt;/div&gt;&lt;div style=&quot;forced-color-adjust: none;&quot;&gt;&lt;div style=&quot;forced-color-adjust: none;&quot;&gt;(X VCPU, XGB RAM)&lt;/div&gt;&lt;/div&gt;" style="sketch=0;pointerEvents=1;shadow=0;dashed=0;html=1;strokeColor=none;fillColor=#505050;labelPosition=center;verticalLabelPosition=bottom;verticalAlign=top;outlineConnect=0;align=center;shape=mxgraph.office.servers.windows_server;fontSize=9;" parent="1" vertex="1">
          <mxGeometry x="293.54" y="308.42" width="56.25" height="56.5" as="geometry" />
        </mxCell>
        <mxCell id="C6mmBQ8od_YR21sbnJJz-52" value="&lt;div style=&quot;&quot;&gt;&lt;b&gt;Modern Clients (DHCP)&lt;/b&gt;&lt;/div&gt;&lt;div style=&quot;&quot;&gt;&lt;b&gt;[172.22.22.224-250]&lt;/b&gt;&lt;/div&gt;&lt;div style=&quot;&quot;&gt;Windows 10, 11&lt;/div&gt;&lt;div style=&quot;&quot;&gt;(physical or VM)&lt;/div&gt;" style="sketch=0;pointerEvents=1;shadow=0;dashed=0;html=1;strokeColor=none;fillColor=#505050;labelPosition=center;verticalLabelPosition=bottom;verticalAlign=top;outlineConnect=0;align=center;shape=mxgraph.office.devices.workstation_pc;fontSize=9;fontColor=#000000;labelBackgroundColor=#FFFFFF;" parent="1" vertex="1">
          <mxGeometry x="730" y="476.5" width="61.5" height="60" as="geometry" />
        </mxCell>
        <mxCell id="C6mmBQ8od_YR21sbnJJz-53" value="&lt;div style=&quot;&quot;&gt;&lt;b&gt;Retro/Legacy Clients (DHCP)&lt;/b&gt;&lt;/div&gt;&lt;div style=&quot;&quot;&gt;&lt;b&gt;[172.22.16.&lt;/b&gt;&lt;b&gt;224-250&lt;/b&gt;&lt;b&gt;]&lt;/b&gt;&lt;/div&gt;&lt;div style=&quot;&quot;&gt;DOS 6.22, Windows 98, XP, 7&lt;/div&gt;&lt;div style=&quot;&quot;&gt;&lt;span style=&quot;color: light-dark(rgb(0, 0, 0), rgb(255, 255, 255));&quot;&gt;&amp;nbsp;physical or VM&lt;/span&gt;&lt;/div&gt;" style="image;points=[];aspect=fixed;html=1;align=center;shadow=0;dashed=0;image=img/lib/allied_telesis/computer_and_terminals/Personal_Computer_with_Server.svg;fontSize=9;labelBackgroundColor=#FFFFFF;" parent="1" vertex="1">
          <mxGeometry x="233.5" y="843" width="59" height="59" as="geometry" />
        </mxCell>
        <mxCell id="C6mmBQ8od_YR21sbnJJz-54" value="&lt;div style=&quot;&quot;&gt;&lt;b&gt;Modern Clients (DHCP)&lt;/b&gt;&lt;/div&gt;&lt;div style=&quot;&quot;&gt;&lt;b&gt;[172.22.23.224-250]&lt;/b&gt;&lt;/div&gt;&lt;div style=&quot;&quot;&gt;Windows 11 physical or VM&lt;/div&gt;" style="sketch=0;pointerEvents=1;shadow=0;dashed=0;html=1;strokeColor=none;fillColor=#505050;labelPosition=center;verticalLabelPosition=bottom;verticalAlign=top;outlineConnect=0;align=center;shape=mxgraph.office.devices.workstation_pc;fontSize=9;labelBackgroundColor=#FFFFFF;" parent="1" vertex="1">
          <mxGeometry x="1024.5700000000002" y="259" width="40" height="46.5" as="geometry" />
        </mxCell>
        <mxCell id="C6mmBQ8od_YR21sbnJJz-55" value="&lt;div style=&quot;&quot;&gt;&lt;b&gt;Retro/Legacy Clients (DHCP)&lt;/b&gt;&lt;/div&gt;&lt;div style=&quot;&quot;&gt;&lt;b&gt;[172.22.17.224-250]&lt;/b&gt;&lt;/div&gt;&lt;div style=&quot;&quot;&gt;DOS 6.22, Windows 98, XP, 7&lt;/div&gt;&lt;div style=&quot;&quot;&gt;&lt;span style=&quot;color: light-dark(rgb(0, 0, 0), rgb(255, 255, 255));&quot;&gt;&amp;nbsp;physical or VM&lt;/span&gt;&lt;/div&gt;" style="image;points=[];aspect=fixed;html=1;align=center;shadow=0;dashed=0;image=img/lib/allied_telesis/computer_and_terminals/Personal_Computer_with_Server.svg;fontSize=9;labelBackgroundColor=#FFFFFF;" parent="1" vertex="1">
          <mxGeometry x="1037.68" y="840" width="65" height="65" as="geometry" />
        </mxCell>
        <mxCell id="C6mmBQ8od_YR21sbnJJz-56" value="&lt;div style=&quot;&quot;&gt;&lt;b&gt;Modern Printer&lt;/b&gt;&lt;/div&gt;&lt;div style=&quot;&quot;&gt;&lt;b&gt;[172.22.22.?]&lt;/b&gt;&lt;/div&gt;&lt;div style=&quot;&quot;&gt;Canon&lt;/div&gt;&lt;div style=&quot;&quot;&gt;(A3,&amp;nbsp;&lt;span style=&quot;background-color: light-dark(rgb(255, 255, 255), rgb(18, 18, 18)); color: light-dark(rgb(0, 0, 0), rgb(255, 255, 255));&quot;&gt;color, laser)&lt;/span&gt;&lt;/div&gt;&lt;div style=&quot;&quot;&gt;&lt;br&gt;&lt;/div&gt;" style="image;html=1;image=img/lib/clip_art/computers/Printer_Commercial_128x128.png;fontSize=9;labelBackgroundColor=#FFFFFF;" parent="1" vertex="1">
          <mxGeometry x="630" y="460" width="76" height="76.5" as="geometry" />
        </mxCell>
        <mxCell id="C6mmBQ8od_YR21sbnJJz-58" value="&lt;div style=&quot;&quot;&gt;&lt;b&gt;Retro Matrix Printer&lt;/b&gt;&lt;/div&gt;&lt;div style=&quot;&quot;&gt;&lt;b style=&quot;&quot;&gt;[172.22.16.?]&amp;nbsp;&lt;/b&gt;&lt;/div&gt;&lt;div style=&quot;&quot;&gt;&lt;span style=&quot;&quot;&gt;via HP JetDirect&lt;/span&gt;&lt;br&gt;&lt;/div&gt;&lt;div style=&quot;&quot;&gt;Epson LX-300&lt;/div&gt;&lt;div style=&quot;&quot;&gt;(A4, color, matrix)&lt;/div&gt;" style="verticalLabelPosition=bottom;sketch=0;aspect=fixed;html=1;verticalAlign=top;strokeColor=none;align=center;outlineConnect=0;shape=mxgraph.citrix.printer;fontSize=9;fontColor=#000000;labelBackgroundColor=#FFFFFF;" parent="1" vertex="1">
          <mxGeometry x="369.54" y="833.75" width="77.5" height="77.5" as="geometry" />
        </mxCell>
        <mxCell id="C6mmBQ8od_YR21sbnJJz-59" value="&lt;b&gt;00 MULTI-CLOUD HYBRID/RETRO LAB CORE NETWORKING AND INFRASTRUCTURE&lt;/b&gt;" style="text;html=1;align=center;verticalAlign=middle;resizable=0;points=[];autosize=1;strokeColor=none;fillColor=light-dark(#1d9dc2, #281d00);fontSize=19;fontFamily=Helvetica;fontColor=light-dark(#ffffff, #ededed);" parent="1" vertex="1">
          <mxGeometry x="186.5" y="10" width="800" height="40" as="geometry" />
        </mxCell>
        <mxCell id="C6mmBQ8od_YR21sbnJJz-66" value="&lt;div&gt;&lt;span style=&quot;background-color: transparent; color: light-dark(rgb(3, 3, 3), rgb(235, 235, 235));&quot;&gt;Address space: 172.22.&lt;b&gt;2&lt;/b&gt;&lt;/span&gt;&lt;b style=&quot;background-color: transparent; color: light-dark(rgb(3, 3, 3), rgb(235, 235, 235));&quot;&gt;6&lt;/b&gt;&lt;span style=&quot;background-color: transparent; color: light-dark(rgb(3, 3, 3), rgb(235, 235, 235));&quot;&gt;.0/24&lt;/span&gt;&lt;br&gt;&lt;/div&gt;" style="rounded=0;whiteSpace=wrap;html=1;fontColor=#030303;fillColor=none;dashed=1;strokeColor=#99CCFF;strokeWidth=2;align=left;verticalAlign=top;fontSize=9;" parent="1" vertex="1">
          <mxGeometry x="26" y="1040" width="234" height="490" as="geometry" />
        </mxCell>
        <mxCell id="C6mmBQ8od_YR21sbnJJz-77" value="&lt;b&gt;AZURE (26)&lt;/b&gt;" style="text;html=1;align=center;verticalAlign=middle;resizable=0;points=[];autosize=1;strokeColor=#6c8ebf;fillColor=#dae8fc;fontSize=14;fontFamily=Helvetica;strokeWidth=2;" parent="1" vertex="1">
          <mxGeometry x="25.999999999999996" y="1010" width="100" height="30" as="geometry" />
        </mxCell>
        <mxCell id="C6mmBQ8od_YR21sbnJJz-86" value="&lt;div&gt;&lt;span style=&quot;background-color: transparent; color: light-dark(rgb(3, 3, 3), rgb(235, 235, 235));&quot;&gt;Address space: 172.22.&lt;/span&gt;&lt;b style=&quot;background-color: transparent; color: light-dark(rgb(3, 3, 3), rgb(235, 235, 235));&quot;&gt;27&lt;/b&gt;&lt;span style=&quot;background-color: transparent; color: light-dark(rgb(3, 3, 3), rgb(235, 235, 235));&quot;&gt;.0/24&lt;/span&gt;&lt;br&gt;&lt;/div&gt;" style="rounded=0;whiteSpace=wrap;html=1;fontColor=#030303;fillColor=none;dashed=1;strokeColor=#99CCFF;strokeWidth=2;align=left;verticalAlign=top;fontSize=9;" parent="1" vertex="1">
          <mxGeometry x="270" y="1040" width="234" height="490" as="geometry" />
        </mxCell>
        <mxCell id="C6mmBQ8od_YR21sbnJJz-87" value="&lt;b&gt;AWS (27)&lt;/b&gt;" style="text;html=1;align=center;verticalAlign=middle;resizable=0;points=[];autosize=1;strokeColor=#d79b00;fillColor=#ffe6cc;fontSize=14;fontFamily=Helvetica;strokeWidth=2;" parent="1" vertex="1">
          <mxGeometry x="269.79" y="1010" width="80" height="30" as="geometry" />
        </mxCell>
        <mxCell id="C6mmBQ8od_YR21sbnJJz-88" value="&lt;div&gt;&lt;span style=&quot;background-color: transparent; color: light-dark(rgb(3, 3, 3), rgb(235, 235, 235));&quot;&gt;Address space: 172.22.&lt;/span&gt;&lt;b style=&quot;background-color: transparent; color: light-dark(rgb(3, 3, 3), rgb(235, 235, 235));&quot;&gt;28&lt;/b&gt;&lt;span style=&quot;background-color: transparent; color: light-dark(rgb(3, 3, 3), rgb(235, 235, 235));&quot;&gt;.0/24&lt;/span&gt;&lt;br&gt;&lt;/div&gt;" style="rounded=0;whiteSpace=wrap;html=1;fontColor=#030303;fillColor=none;dashed=1;strokeColor=#99CCFF;strokeWidth=2;align=left;verticalAlign=top;fontSize=9;" parent="1" vertex="1">
          <mxGeometry x="510" y="1040" width="234" height="490" as="geometry" />
        </mxCell>
        <mxCell id="C6mmBQ8od_YR21sbnJJz-89" value="&lt;b&gt;GCP (28)&lt;/b&gt;" style="text;html=1;align=center;verticalAlign=middle;resizable=0;points=[];autosize=1;strokeColor=#82b366;fillColor=#d5e8d4;fontSize=14;fontFamily=Helvetica;strokeWidth=2;" parent="1" vertex="1">
          <mxGeometry x="510" y="1010" width="80" height="30" as="geometry" />
        </mxCell>
        <mxCell id="C6mmBQ8od_YR21sbnJJz-90" value="&lt;div&gt;&lt;span style=&quot;background-color: transparent; color: light-dark(rgb(3, 3, 3), rgb(235, 235, 235));&quot;&gt;Address space: 172.22.&lt;/span&gt;&lt;b style=&quot;background-color: transparent; color: light-dark(rgb(3, 3, 3), rgb(235, 235, 235));&quot;&gt;29&lt;/b&gt;&lt;span style=&quot;background-color: transparent; color: light-dark(rgb(3, 3, 3), rgb(235, 235, 235));&quot;&gt;.0/24&lt;/span&gt;&lt;br&gt;&lt;/div&gt;" style="rounded=0;whiteSpace=wrap;html=1;fontColor=#030303;fillColor=none;dashed=1;strokeColor=#99CCFF;strokeWidth=2;align=left;verticalAlign=top;fontSize=9;" parent="1" vertex="1">
          <mxGeometry x="750" y="1040" width="180" height="490" as="geometry" />
        </mxCell>
        <mxCell id="C6mmBQ8od_YR21sbnJJz-91" value="&lt;b&gt;OCI (29)&lt;/b&gt;" style="text;html=1;align=center;verticalAlign=middle;resizable=0;points=[];autosize=1;strokeColor=#b85450;fillColor=#f8cecc;fontSize=14;fontFamily=Helvetica;strokeWidth=2;" parent="1" vertex="1">
          <mxGeometry x="750" y="1010" width="80" height="30" as="geometry" />
        </mxCell>
        <mxCell id="C6mmBQ8od_YR21sbnJJz-92" value="&lt;div&gt;&lt;span style=&quot;background-color: transparent; color: light-dark(rgb(3, 3, 3), rgb(235, 235, 235));&quot;&gt;Address space: 172.22.&lt;b&gt;30&lt;/b&gt;&lt;/span&gt;&lt;span style=&quot;background-color: transparent; color: light-dark(rgb(3, 3, 3), rgb(235, 235, 235));&quot;&gt;.0/24&lt;/span&gt;&lt;br&gt;&lt;/div&gt;" style="rounded=0;whiteSpace=wrap;html=1;fontColor=#030303;fillColor=none;dashed=1;strokeColor=#99CCFF;strokeWidth=2;align=left;verticalAlign=top;fontSize=9;" parent="1" vertex="1">
          <mxGeometry x="936" y="1040" width="180" height="490" as="geometry" />
        </mxCell>
        <mxCell id="C6mmBQ8od_YR21sbnJJz-93" value="&lt;b&gt;HUAWEI (30)&lt;/b&gt;" style="text;html=1;align=center;verticalAlign=middle;resizable=0;points=[];autosize=1;strokeColor=#9673a6;fillColor=#e1d5e7;fontSize=14;fontFamily=Helvetica;strokeWidth=2;" parent="1" vertex="1">
          <mxGeometry x="936" y="1010" width="110" height="30" as="geometry" />
        </mxCell>
        <mxCell id="C6mmBQ8od_YR21sbnJJz-94" value="&lt;div style=&quot;forced-color-adjust: none; color: rgb(0, 0, 0); font-family: Helvetica; font-style: normal; font-variant-ligatures: normal; font-variant-caps: normal; letter-spacing: normal; orphans: 2; text-align: center; text-indent: 0px; text-transform: none; widows: 2; word-spacing: 0px; -webkit-text-stroke-width: 0px; white-space: nowrap; text-decoration-thickness: initial; text-decoration-style: initial; text-decoration-color: initial;&quot;&gt;&lt;b&gt;Mikrotik Firewall&lt;/b&gt;&lt;/div&gt;&lt;div style=&quot;forced-color-adjust: none; color: rgb(0, 0, 0); font-family: Helvetica; font-style: normal; font-variant-ligatures: normal; font-variant-caps: normal; font-weight: 400; letter-spacing: normal; orphans: 2; text-align: center; text-indent: 0px; text-transform: none; widows: 2; word-spacing: 0px; -webkit-text-stroke-width: 0px; white-space: nowrap; text-decoration-thickness: initial; text-decoration-style: initial; text-decoration-color: initial;&quot;&gt;&lt;b style=&quot;forced-color-adjust: none;&quot;&gt;[172.22.26.4]&lt;/b&gt;&lt;/div&gt;&lt;span&gt;CHR&lt;/span&gt;&lt;br&gt;&lt;div style=&quot;forced-color-adjust: none; color: rgb(0, 0, 0); font-family: Helvetica; font-style: normal; font-variant-ligatures: normal; font-variant-caps: normal; font-weight: 400; letter-spacing: normal; orphans: 2; text-align: center; text-indent: 0px; text-transform: none; widows: 2; word-spacing: 0px; -webkit-text-stroke-width: 0px; white-space: nowrap; text-decoration-thickness: initial; text-decoration-style: initial; text-decoration-color: initial;&quot;&gt;Mikrotik Gateway/Firewall&lt;br style=&quot;forced-color-adjust: none;&quot;&gt;&lt;div style=&quot;forced-color-adjust: none;&quot;&gt;B1s (1 VCPU, 2GB RAM)&lt;/div&gt;&lt;/div&gt;" style="image;html=1;image=img/lib/clip_art/networking/Firewall_02_128x128.png;fontSize=9;labelBackgroundColor=#FFFFFF;" parent="1" vertex="1">
          <mxGeometry x="63.43" y="1070" width="40.88" height="50" as="geometry" />
        </mxCell>
        <mxCell id="C6mmBQ8od_YR21sbnJJz-96" value="" style="shape=flexArrow;endArrow=classic;startArrow=classic;html=1;rounded=0;align=center;fillColor=#fff2cc;strokeColor=#d6b656;" parent="1" source="C6mmBQ8od_YR21sbnJJz-35" target="C6mmBQ8od_YR21sbnJJz-32" edge="1">
          <mxGeometry width="100" height="100" relative="1" as="geometry">
            <mxPoint x="550" y="210" as="sourcePoint" />
            <mxPoint x="650" y="110" as="targetPoint" />
          </mxGeometry>
        </mxCell>
        <mxCell id="C6mmBQ8od_YR21sbnJJz-97" value="Site2Site VPN" style="edgeLabel;html=1;align=center;verticalAlign=middle;resizable=0;points=[];" parent="C6mmBQ8od_YR21sbnJJz-96" vertex="1" connectable="0">
          <mxGeometry x="0.7071" y="-3" relative="1" as="geometry">
            <mxPoint x="42" y="18" as="offset" />
          </mxGeometry>
        </mxCell>
        <mxCell id="C6mmBQ8od_YR21sbnJJz-99" value="&lt;div style=&quot;forced-color-adjust: none; color: rgb(0, 0, 0); font-family: Helvetica; font-style: normal; font-variant-ligatures: normal; font-variant-caps: normal; letter-spacing: normal; orphans: 2; text-align: center; text-indent: 0px; text-transform: none; widows: 2; word-spacing: 0px; -webkit-text-stroke-width: 0px; white-space: nowrap; text-decoration-thickness: initial; text-decoration-style: initial; text-decoration-color: initial;&quot;&gt;&lt;b&gt;Mikrotik Firewall&lt;/b&gt;&lt;/div&gt;&lt;div style=&quot;forced-color-adjust: none; color: rgb(0, 0, 0); font-family: Helvetica; font-style: normal; font-variant-ligatures: normal; font-variant-caps: normal; font-weight: 400; letter-spacing: normal; orphans: 2; text-align: center; text-indent: 0px; text-transform: none; widows: 2; word-spacing: 0px; -webkit-text-stroke-width: 0px; white-space: nowrap; text-decoration-thickness: initial; text-decoration-style: initial; text-decoration-color: initial;&quot;&gt;&lt;b style=&quot;forced-color-adjust: none;&quot;&gt;[172.22.27.?]&lt;/b&gt;&lt;/div&gt;Cloud Hosted Router (CHR)&lt;br&gt;&lt;div style=&quot;forced-color-adjust: none; color: rgb(0, 0, 0); font-family: Helvetica; font-style: normal; font-variant-ligatures: normal; font-variant-caps: normal; font-weight: 400; letter-spacing: normal; orphans: 2; text-align: center; text-indent: 0px; text-transform: none; widows: 2; word-spacing: 0px; -webkit-text-stroke-width: 0px; white-space: nowrap; text-decoration-thickness: initial; text-decoration-style: initial; text-decoration-color: initial;&quot;&gt;Mikrotik Gateway/Firewall&lt;br style=&quot;forced-color-adjust: none;&quot;&gt;&lt;div style=&quot;forced-color-adjust: none;&quot;&gt;? (1 VCPU, 2GB RAM)&lt;/div&gt;&lt;/div&gt;" style="image;html=1;image=img/lib/clip_art/networking/Firewall_02_128x128.png;fontSize=9;labelBackgroundColor=#FFFFFF;" parent="1" vertex="1">
          <mxGeometry x="311.29" y="1070" width="40.88" height="50" as="geometry" />
        </mxCell>
        <mxCell id="C6mmBQ8od_YR21sbnJJz-100" value="&lt;div style=&quot;forced-color-adjust: none; color: rgb(0, 0, 0); font-family: Helvetica; font-style: normal; font-variant-ligatures: normal; font-variant-caps: normal; letter-spacing: normal; orphans: 2; text-align: center; text-indent: 0px; text-transform: none; widows: 2; word-spacing: 0px; -webkit-text-stroke-width: 0px; white-space: nowrap; text-decoration-thickness: initial; text-decoration-style: initial; text-decoration-color: initial;&quot;&gt;&lt;b&gt;Mikrotik Firewall&lt;/b&gt;&lt;/div&gt;&lt;div style=&quot;forced-color-adjust: none; color: rgb(0, 0, 0); font-family: Helvetica; font-style: normal; font-variant-ligatures: normal; font-variant-caps: normal; font-weight: 400; letter-spacing: normal; orphans: 2; text-align: center; text-indent: 0px; text-transform: none; widows: 2; word-spacing: 0px; -webkit-text-stroke-width: 0px; white-space: nowrap; text-decoration-thickness: initial; text-decoration-style: initial; text-decoration-color: initial;&quot;&gt;&lt;b style=&quot;forced-color-adjust: none;&quot;&gt;[172.22.28.?]&lt;/b&gt;&lt;/div&gt;Cloud Hosted Router (CHR)&lt;br&gt;&lt;div style=&quot;forced-color-adjust: none; color: rgb(0, 0, 0); font-family: Helvetica; font-style: normal; font-variant-ligatures: normal; font-variant-caps: normal; font-weight: 400; letter-spacing: normal; orphans: 2; text-align: center; text-indent: 0px; text-transform: none; widows: 2; word-spacing: 0px; -webkit-text-stroke-width: 0px; white-space: nowrap; text-decoration-thickness: initial; text-decoration-style: initial; text-decoration-color: initial;&quot;&gt;Mikrotik Gateway/Firewall&lt;br style=&quot;forced-color-adjust: none;&quot;&gt;&lt;div style=&quot;forced-color-adjust: none;&quot;&gt;? (1 VCPU, 2GB RAM)&lt;/div&gt;&lt;/div&gt;" style="image;html=1;image=img/lib/clip_art/networking/Firewall_02_128x128.png;fontSize=9;labelBackgroundColor=#FFFFFF;" parent="1" vertex="1">
          <mxGeometry x="549.12" y="1070" width="40.88" height="50" as="geometry" />
        </mxCell>
        <mxCell id="C6mmBQ8od_YR21sbnJJz-101" value="&lt;div style=&quot;forced-color-adjust: none; color: rgb(0, 0, 0); font-family: Helvetica; font-style: normal; font-variant-ligatures: normal; font-variant-caps: normal; letter-spacing: normal; orphans: 2; text-align: center; text-indent: 0px; text-transform: none; widows: 2; word-spacing: 0px; -webkit-text-stroke-width: 0px; white-space: nowrap; text-decoration-thickness: initial; text-decoration-style: initial; text-decoration-color: initial;&quot;&gt;&lt;b&gt;Mikrotik Firewall&lt;/b&gt;&lt;/div&gt;&lt;div style=&quot;forced-color-adjust: none; color: rgb(0, 0, 0); font-family: Helvetica; font-style: normal; font-variant-ligatures: normal; font-variant-caps: normal; font-weight: 400; letter-spacing: normal; orphans: 2; text-align: center; text-indent: 0px; text-transform: none; widows: 2; word-spacing: 0px; -webkit-text-stroke-width: 0px; white-space: nowrap; text-decoration-thickness: initial; text-decoration-style: initial; text-decoration-color: initial;&quot;&gt;&lt;b style=&quot;forced-color-adjust: none;&quot;&gt;[172.22.29.?]&lt;/b&gt;&lt;/div&gt;Cloud Hosted Router (CHR)&lt;br&gt;&lt;div style=&quot;forced-color-adjust: none; color: rgb(0, 0, 0); font-family: Helvetica; font-style: normal; font-variant-ligatures: normal; font-variant-caps: normal; font-weight: 400; letter-spacing: normal; orphans: 2; text-align: center; text-indent: 0px; text-transform: none; widows: 2; word-spacing: 0px; -webkit-text-stroke-width: 0px; white-space: nowrap; text-decoration-thickness: initial; text-decoration-style: initial; text-decoration-color: initial;&quot;&gt;Mikrotik Gateway/Firewall&lt;br style=&quot;forced-color-adjust: none;&quot;&gt;&lt;div style=&quot;forced-color-adjust: none;&quot;&gt;? (1 VCPU, 2GB RAM)&lt;/div&gt;&lt;/div&gt;" style="image;html=1;image=img/lib/clip_art/networking/Firewall_02_128x128.png;fontSize=9;labelBackgroundColor=#FFFFFF;" parent="1" vertex="1">
          <mxGeometry x="791.5" y="1070" width="40.88" height="50" as="geometry" />
        </mxCell>
        <mxCell id="C6mmBQ8od_YR21sbnJJz-102" value="&lt;div style=&quot;forced-color-adjust: none; color: rgb(0, 0, 0); font-family: Helvetica; font-style: normal; font-variant-ligatures: normal; font-variant-caps: normal; letter-spacing: normal; orphans: 2; text-align: center; text-indent: 0px; text-transform: none; widows: 2; word-spacing: 0px; -webkit-text-stroke-width: 0px; white-space: nowrap; text-decoration-thickness: initial; text-decoration-style: initial; text-decoration-color: initial;&quot;&gt;&lt;b&gt;Mikrotik Firewall&lt;/b&gt;&lt;/div&gt;&lt;div style=&quot;forced-color-adjust: none; color: rgb(0, 0, 0); font-family: Helvetica; font-style: normal; font-variant-ligatures: normal; font-variant-caps: normal; font-weight: 400; letter-spacing: normal; orphans: 2; text-align: center; text-indent: 0px; text-transform: none; widows: 2; word-spacing: 0px; -webkit-text-stroke-width: 0px; white-space: nowrap; text-decoration-thickness: initial; text-decoration-style: initial; text-decoration-color: initial;&quot;&gt;&lt;b style=&quot;forced-color-adjust: none;&quot;&gt;[172.22.30.?]&lt;/b&gt;&lt;/div&gt;Cloud Hosted Router (CHR)&lt;br&gt;&lt;div style=&quot;forced-color-adjust: none; color: rgb(0, 0, 0); font-family: Helvetica; font-style: normal; font-variant-ligatures: normal; font-variant-caps: normal; font-weight: 400; letter-spacing: normal; orphans: 2; text-align: center; text-indent: 0px; text-transform: none; widows: 2; word-spacing: 0px; -webkit-text-stroke-width: 0px; white-space: nowrap; text-decoration-thickness: initial; text-decoration-style: initial; text-decoration-color: initial;&quot;&gt;Mikrotik Gateway/Firewall&lt;br style=&quot;forced-color-adjust: none;&quot;&gt;&lt;div style=&quot;forced-color-adjust: none;&quot;&gt;? (1 VCPU, 2GB RAM)&lt;/div&gt;&lt;/div&gt;" style="image;html=1;image=img/lib/clip_art/networking/Firewall_02_128x128.png;fontSize=9;labelBackgroundColor=#FFFFFF;" parent="1" vertex="1">
          <mxGeometry x="980.25" y="1070" width="40.88" height="50" as="geometry" />
        </mxCell>
      </root>
    </mxGraphModel>
  </diagram>
</mxfile>
